{"title":"Space Warriors 2013 DVDRip x264 AC3-MiLLENiUM","uid":10140981,"size":1427033435,"categoryP":"video","categoryS":"movies","magnet":"?xt=urn:btih:53b85a5e3e54fb4be02e4e4c830426fcb2fd58ee&amp;dn=Space+Warriors+2013+DVDRip+x264+AC3-MiLLENiUM&amp;tr=udp%3A%2F%2Ftracker.openbittorrent.com%3A80&amp;tr=udp%3A%2F%2Fopen.demonii.com%3A1337&amp;tr=udp%3A%2F%2Ftracker.coppersurfer.tk%3A6969&amp;tr=udp%3A%2F%2Fexodus.desync.com%3A6969","seeders":2,"leechers":0,"uploader":".BONE.","files":4,"time":1399996778,"description":"A group of kid space cadets must help in the rescue of three astronauts whose ship got stranded in space. \n\nSpace Warriors 2013 DVDRip x264 AC3-MiLLENiUM \n\nGeneral\n\nSource...............: NTSC.DVDR-WaLMaRT [THANKS] &lt;a href=&quot;\nhttp://www.imdb.com/title/tt2328745/&quot; rel=&quot;nofollow&quot; target=&quot;_NEW&quot;&gt;\nhttp://www.imdb.com/title/tt2328745/&lt;/a&gt;\nSample Included......: yes\n\nGeneral\nComplete name : Space Warriors 2013 DVDRip x264 AC3-MiLLENiUM.mkv\nFormat : Matroska\nFormat version : Version 2\nFile size : 1.31 GiB\nDuration : 1h 33mn\nOverall bit rate mode : Variable\nOverall bit rate : 2 008 Kbps\nEncoded date : UTC 2014-05-12 10:44:41\nWriting application : mkvmerge v6.9.1 ('Blue Panther') 32bit built on Apr 18 2014 18:15:44\nWriting library : libebml v1.3.0 + libmatroska v1.4.1\n\nVideo\nID : 1\nFormat : AVC\nFormat/Info : Advanced Video Codec\nFormat profile : &lt;a class=&quot;__cf_email__&quot; href=&quot;/cdn-cgi/l/email-protection&quot; data-cfemail=&quot;6b23020c032b275f455a&quot;&gt;[email&amp;#160;protected]&lt;/a&gt;&lt;script cf-hash='f9e31' type=&quot;text/javascript&quot;&gt;\n/* &lt;![CDATA[ */!function(){try{var t=&quot;currentScript&quot;in document?document.currentScript:function(){for(var t=document.getElementsByTagName(&quot;script&quot;),e=t.length;e--;)if(t[e].getAttribute(&quot;cf-hash&quot;))return t[e]}();if(t&amp;&amp;t.previousSibling){var e,r,n,i,c=t.previousSibling,a=c.getAttribute(&quot;data-cfemail&quot;);if(a){for(e=&quot;&quot;,r=parseInt(a.substr(0,2),16),n=2;a.length-n;n+=2)i=parseInt(a.substr(n,2),16)^r,e+=String.fromCharCode(i);e=document.createTextNode(e),c.parentNode.replaceChild(e,c)}}}catch(u){}}();/* ]]&gt; */&lt;/script&gt;\nFormat settings, CABAC : Yes\nFormat settings, ReFrames : 3 frames\nCodec ID : V_MPEG4/ISO/AVC\nDuration : 1h 33mn\nBit rate mode : Variable\nBit rate : 1 520 Kbps\nMaximum bit rate : 40.0 Mbps\nWidth : 720 pixels\nHeight : 304 pixels\nDisplay aspect ratio : 2.35:1\nFrame rate mode : Constant\nFrame rate : 23.976 fps\nColor space : YUV\nChroma subsampling : 4:2:0\nBit depth : 8 bits\nScan type : Progressive\nBits/(Pixel*Frame) : 0.290\nStream size : 1 015 MiB (76%)\nWriting library : x264 core 142 r2409 d6b4e63\n\nAudio\nID : 2\nFormat : AC-3\nFormat/Info : Audio Coding 3\nMode extension : CM (complete main)\nFormat settings, Endianness : Big\nCodec ID : A_AC3\nDuration : 1h 33mn\nBit rate mode : Constant\nBit rate : 448 Kbps\nChannel(s) : 6 channels\nChannel positions : Front: L C R, Side: L R, LFE\nSampling rate : 48.0 KHz\nBit depth : 16 bits\nCompression mode : Lossy\nStream size : 299 MiB (22%)\nLanguage : English\nDefault : Yes\nForced : No\n","torrent":{"xt":"urn:btih:53b85a5e3e54fb4be02e4e4c830426fcb2fd58ee","amp;dn":"Space+Warriors+2013+DVDRip+x264+AC3-MiLLENiUM","amp;tr":["udp%3A%2F%2Ftracker.openbittorrent.com%3A80","udp%3A%2F%2Fopen.demonii.com%3A1337","udp%3A%2F%2Ftracker.coppersurfer.tk%3A6969","udp%3A%2F%2Fexodus.desync.com%3A6969"],"infoHash":"53b85a5e3e54fb4be02e4e4c830426fcb2fd58ee","infoHashBuffer":{"type":"Buffer","data":[83,184,90,94,62,84,251,75,224,46,78,76,131,4,38,252,178,253,88,238]},"announce":[],"urlList":[]}}